# xmcd CD database file
#
# Track frame offsets:
#	183
#	20053
#	41593
#	72205
#	90860
#	103515
#	118743
#	147285
#	163640
#
# Disc length: 2527 seconds
#
# Revision: 0
# Processed by: cddbd v1.4PL0 Copyright (c) Steve Scherf et al.
# Submitted via: Feurio! 1.65 - http://www.feurio.com
#
DISCID=7109dd09
DTITLE=Rudy Rotta - reason to live
DYEAR=1900
DGENRE=blues
TTITLE0=Money Money
TTITLE1=The last time Baby
TTITLE2=I don't pay no money
TTITLE3=Reason to live
TTITLE4=Get back
TTITLE5=Tell me Baby
TTITLE6=Had a Friend
TTITLE7=Hold on
TTITLE8=Boogie in do
EXTD=
EXTT0=
EXTT1=
EXTT2=
EXTT3=
EXTT4=
EXTT5=
EXTT6=
EXTT7=
EXTT8=
PLAYORDER=
